<?xml version="1.0" encoding="UTF-8"?>
<!-- Created with Inkscape (http://www.inkscape.org/) -->
<svg width="16" height="16" inkscape:version="1.2.1 (9c6d41e, 2022-07-14)" sodipodi:docname="next-page-16x16-px-plain.svg" version="1.1" viewBox="0 0 16 16" xmlns="http://www.w3.org/2000/svg" xmlns:inkscape="http://www.inkscape.org/namespaces/inkscape" xmlns:sodipodi="http://sodipodi.sourceforge.net/DTD/sodipodi-0.dtd">
 <sodipodi:namedview bordercolor="#666666" borderopacity="1.0" inkscape:current-layer="g1128" inkscape:cx="-2.0141831" inkscape:cy="7.7138927" inkscape:deskcolor="#d1d1d1" inkscape:pagecheckerboard="0" inkscape:pageopacity="0.0" inkscape:showpageshadow="2" inkscape:window-height="709" inkscape:window-maximized="1" inkscape:window-width="1366" inkscape:window-x="0" inkscape:window-y="0" inkscape:zoom="11.667261" pagecolor="#ffffff" showgrid="false"/>
 <g transform="matrix(.99671 0 0 .99671 .34105 .058985)" fill="#4a4c7d" stroke="#4a4c7d" stroke-width=".53194">
  <g transform="matrix(1.0323 0 0 1.0323 -.20126 .28622)">
   <g transform="rotate(-90 5.8792 5.6811)" stroke-linecap="round">
    <g transform="rotate(180 4.1194 6.9842)">
     <g transform="rotate(90 4.5762 6.9842)" fill="#4a4c7d" stroke="#4a4c7d" stroke-linecap="round" stroke-linejoin="round">
      <path d="m7.4614.15635c.12162.046806.26535.1407.39377.26731.26617.25684.38767.56213.2738.68039l-7.056 7.0873c-.11389.11826-.42556.0021838-.69176-.25463-.26617-.25684-.38767-.56213-.27378-.68039l7.056-7.0873c.059878-.061858.167-.063089.29798-.012685z" stroke-width=".39461"/>
      <path d="m8.142 14.051c-.046797.12162-.14069.26534-.26729.39376-.25679.26618-.56211.38765-.68037.27376l-7.0874-7.0561c-.11827-.11389-.0021994-.42555.2546-.69174.25679-.26618.5621-.38765.68037-.27376l7.0874 7.0561c.061861.05988.063098.167.012696.29798z" stroke-width=".39413"/>
     </g>
    </g>
   </g>
  </g>
 </g>
</svg>
